<svg xmlns="http://www.w3.org/2000/svg" viewBox="0 0 512 512"><path d="M512 256c0 79.6-36.331 150.716-93.32 197.663C374.45 490.12 317.785 512 256 512 114.615 512 0 397.385 0 256S114.615 0 256 0c61.785 0 118.45 21.88 162.68 58.337C475.669 105.284 512 176.4 512 256z" fill="#f0efeb"/><g fill="#00499b"><path d="M285.277 57.901h-58.553c-109.416 0-198.1 88.683-198.1 198.099 0 109.399 88.684 198.099 198.099 198.099h58.553c109.416 0 198.099-88.701 198.099-198.099.001-109.416-88.683-198.099-198.098-198.099zm-58.554 377.261c-98.942 0-179.162-80.221-179.162-179.162S127.782 76.838 226.723 76.838 405.886 157.058 405.886 256s-80.221 179.162-179.163 179.162z"/><path d="M185.4 151.274c-41.726 16.48-71.262 57.139-71.262 104.724s29.536 88.244 71.262 104.724V151.274zM268.047 151.274v209.448c41.727-16.48 71.263-57.139 71.263-104.724s-29.536-88.245-71.263-104.724z"/></g></svg>