<svg width="40" height="17" fill="none" xmlns="http://www.w3.org/2000/svg"><path d="M19.098 0h17.698c1.692 0 2.993 1.301 2.993 2.993v10.671c0 1.692-1.301 3.123-2.993 3.123H19.098c-1.692 0-2.993-1.431-2.993-3.123V2.994C16.105 1.3 17.405 0 19.098 0zm-1.041 1.822l8.328 6.897c.781.65 2.212.65 3.123 0l8.329-6.897c-.26-.26-.65-.52-1.041-.52H19.098c-.39 0-.781.26-1.041.52zm20.43 1.301L30.42 9.76c-1.431 1.171-3.643 1.171-4.945 0l-8.068-6.637v10.541c0 .911.78 1.692 1.692 1.692h17.698c.91 0 1.692-.78 1.692-1.692V3.124zM6.474 12.753c-.78 0-.78 1.171 0 1.171h7.158c.78 0 .78-1.17 0-1.17H6.474zM6.995 9.24c-.65 0-.65 1.17 0 1.17h6.637c.78 0 .78-1.17 0-1.17H6.995zM4.652 10.41c.781 0 .781-1.17 0-1.17H2.961c-.781 0-.781 1.17 0 1.17h1.691zM.488 6.377c-.65 0-.65 1.17 0 1.17h13.144c.78 0 .78-1.17 0-1.17H.488zM5.693 2.863c-.78 0-.78 1.171 0 1.171h1.562c.78 0 .78-1.171 0-1.171H5.693zM13.631 4.034c.78 0 .78-1.171 0-1.171H9.337c-.781 0-.781 1.171 0 1.171h4.294z" fill="#FDFDFD"/></svg>