<svg width="33" height="30" fill="none" xmlns="http://www.w3.org/2000/svg"><path d="M26.37 16.2c-.12-.201-.36-.242-.56-.16-.2.12-.24.363-.16.566l6.248 10.845H20.322l1.202-1.093c.16-.162.2-.405.04-.567-.16-.161-.4-.202-.561-.04l-1.883 1.66a.37.37 0 0 0-.12.282c0 .122.04.203.08.284l1.643 1.902c.08.08.2.121.32.121.08 0 .2-.04.28-.08.16-.163.2-.406.04-.568l-1.001-1.092h12.217a.42.42 0 0 0 .36-.202.37.37 0 0 0 0-.405L26.37 16.2zM15 28.473c0-.264-.177-.44-.442-.44H1.26l6.716-11.512.53 1.626a.424.424 0 0 0 .398.308h.132a.439.439 0 0 0 .265-.571l-.883-2.593a.443.443 0 0 0-.575-.264l-2.606.88a.439.439 0 0 0-.265.57c.088.22.309.352.574.264l1.59-.527L.066 28.34a.397.397 0 0 0 0 .44.467.467 0 0 0 .398.219h14.05c.31-.088.486-.308.486-.527zM23.674 12c.09 0 .134 0 .223-.042a.441.441 0 0 0 .224-.254l.851-2.498c.09-.211-.045-.465-.269-.55a.474.474 0 0 0-.582.254l-.537 1.566L17.316.19c-.179-.253-.627-.253-.761 0l-6.492 10.583c-.134.211-.045.465.18.592a.467.467 0 0 0 .626-.17l6.044-9.946 5.865 9.608-1.612-.508a.474.474 0 0 0-.582.254c-.09.212.045.466.269.55l2.641.805a.36.36 0 0 0 .18.042zm-.704 1.375c0-.125-.087-.208-.173-.292C22.71 13 22.58 13 22.494 13c-.173 0-3.932.375-5.228 1.875a2.98 2.98 0 0 0-.605 1.083c-2.204-.791-5.056-.875-5.228-.875-.216 0-.432.167-.432.417 0 .208-.087 5.125 1.771 7 1.21 1.25 3.198 1.5 4.667 1.5 1.08 0 1.858-.125 1.944-.167h.087c.043 0 .086-.041.13-.083.042-.042.042-.083.085-.125v-.083c.044-.125.519-1.834.217-3.667.864-.25 1.598-.625 2.074-1.208 1.296-1.5.993-5.125.993-5.292zm-5.056 2.042c.648-.75 2.247-1.209 3.457-1.417l-2.895 3c-.303-.25-.648-.5-1.037-.708a2.17 2.17 0 0 1 .475-.875zm1.08 7.166L12.47 16c1.555.125 4.364.542 5.487 1.708 1.426 1.417 1.253 3.709 1.037 4.875zm-5.617-.625c-1.167-1.166-1.426-3.833-1.512-5.375l6.481 6.584c-1.253.083-3.673.083-4.969-1.209zm6.352-2.875c-.13-.5-.39-.958-.692-1.416l3.068-3.209c0 1.209-.13 2.959-.82 3.709-.346.416-.865.708-1.556.916z" fill="#67605F"/></svg>