<svg class="svg--logo-principal" xmlns="http://www.w3.org/2000/svg" width="20em" viewBox="0 0 170 43.418">
    <g id="logo_versao_principal" data-name="logo versao principal" transform="translate(-0.025)">
      <g id="Grupo_8" data-name="Grupo 8" transform="translate(41.258 23.598)">
        <path id="Caminho_32" data-name="Caminho 32" d="M107.881,72.307a3.149,3.149,0,0,0,.749-2.206,3.056,3.056,0,0,0-.791-2.206,2.5,2.5,0,0,0-1.956-.832,2.645,2.645,0,0,0-2.039.874,3.056,3.056,0,0,0-.791,2.206,3.923,3.923,0,0,0,.208,1.249,2.47,2.47,0,0,0,.583.957,2.965,2.965,0,0,0,.916.624,3.178,3.178,0,0,0,1.124.208,2.619,2.619,0,0,0,2-.874m1.373-8.365a6.053,6.053,0,0,1,1.873,1.373,6.656,6.656,0,0,1,1.249,2.123,8.2,8.2,0,0,1,.458,2.705,6.979,6.979,0,0,1-1.706,4.828,5.573,5.573,0,0,1-4.37,1.831,4.372,4.372,0,0,1-3.662-1.623h-.083v1.373H99.1V57.2h4.12v7.866h.083a4.653,4.653,0,0,1,3.662-1.623,5.538,5.538,0,0,1,2.289.5" transform="translate(-99.1 -56.992)" fill="#686162"></path>
        <path id="Caminho_33" data-name="Caminho 33" d="M138.553,76.029a2.5,2.5,0,0,0-.874,1.5l4.828-.042a2.838,2.838,0,0,0-.458-1.082,2.161,2.161,0,0,0-.791-.708,2.428,2.428,0,0,0-1.082-.25,2.56,2.56,0,0,0-1.623.583m7.866,3.954h-8.74a2.436,2.436,0,0,0,1.04,1.623,3.434,3.434,0,0,0,2,.583,3.936,3.936,0,0,0,3.121-1.54L146,83.1a6.348,6.348,0,0,1-2.331,1.79,8,8,0,0,1-3.371.666,7.053,7.053,0,0,1-2.664-.5,6.232,6.232,0,0,1-2.123-1.373,7.014,7.014,0,0,1-1.415-2.123,7.269,7.269,0,0,1-.5-2.705,7.053,7.053,0,0,1,.5-2.664,6.232,6.232,0,0,1,1.373-2.123,6.051,6.051,0,0,1,2.081-1.373,6.691,6.691,0,0,1,2.622-.5,6.812,6.812,0,0,1,3.329.832,5.874,5.874,0,0,1,2.289,2.331,6.974,6.974,0,0,1,.832,3.371,7.75,7.75,0,0,0-.208,1.249" transform="translate(-119.242 -65.749)" fill="#686162"></path>
        <path id="Caminho_34" data-name="Caminho 34" d="M175.632,72.2v4.412c-.25,0-.583-.042-.957-.042a3.34,3.34,0,0,0-1.623.375,2.2,2.2,0,0,0-1,1.04,3.449,3.449,0,0,0-.333,1.5v5.785H167.6V72.45h4.12v1.706h.042a5.331,5.331,0,0,1,1.082-1.082,6.074,6.074,0,0,1,1.249-.666,3.938,3.938,0,0,1,1.373-.208h.166" transform="translate(-139.092 -65.749)" fill="#686162"></path>
        <path id="Caminho_35" data-name="Caminho 35" d="M191.753,76.029a2.5,2.5,0,0,0-.874,1.5l4.828-.042a2.838,2.838,0,0,0-.458-1.082,2.161,2.161,0,0,0-.791-.708,2.428,2.428,0,0,0-1.082-.25,2.751,2.751,0,0,0-1.623.583m7.866,3.954h-8.74a2.436,2.436,0,0,0,1.04,1.623,3.434,3.434,0,0,0,2,.583,3.936,3.936,0,0,0,3.121-1.54L199.2,83.1a6.348,6.348,0,0,1-2.331,1.79,8,8,0,0,1-3.371.666,7.053,7.053,0,0,1-2.664-.5,6.232,6.232,0,0,1-2.123-1.373,7.013,7.013,0,0,1-1.415-2.123,7.269,7.269,0,0,1-.5-2.705,7.053,7.053,0,0,1,.5-2.664,6.232,6.232,0,0,1,1.373-2.123,6.051,6.051,0,0,1,2.081-1.373,6.691,6.691,0,0,1,2.622-.5,6.812,6.812,0,0,1,3.329.832,5.874,5.874,0,0,1,2.289,2.331,6.975,6.975,0,0,1,.832,3.371c-.083.333-.125.749-.208,1.249" transform="translate(-150.301 -65.749)" fill="#686162"></path>
        <path id="Caminho_36" data-name="Caminho 36" d="M230.647,72.491a4.009,4.009,0,0,1,1.457.874,3.824,3.824,0,0,1,.957,1.665,8.943,8.943,0,0,1,.333,2.539v7.7h-4.12V78.609a4.522,4.522,0,0,0-.25-1.665,1.394,1.394,0,0,0-.666-.832,2.308,2.308,0,0,0-1.165-.25,2.543,2.543,0,0,0-1.249.333,2.242,2.242,0,0,0-.832,1,3.977,3.977,0,0,0-.291,1.665V85.31H220.7V72.45h4.12v1.54h.042a4.9,4.9,0,0,1,1.748-1.332,5.683,5.683,0,0,1,4.037-.166" transform="translate(-170.092 -65.749)" fill="#686162"></path>
        <path id="Caminho_37" data-name="Caminho 37" d="M255.041,63.984h4.079v12.86h-4.079Zm.208-2.206a2.241,2.241,0,0,1-.749-1.706,2.542,2.542,0,0,1,.333-1.249,2.188,2.188,0,0,1,.916-.832,2.675,2.675,0,0,1,1.29-.291,2.618,2.618,0,0,1,1.831.666,2.241,2.241,0,0,1,.749,1.706,2.122,2.122,0,0,1-.749,1.706,2.549,2.549,0,0,1-1.831.666,2.516,2.516,0,0,1-1.79-.666" transform="translate(-189.825 -57.284)" fill="#686162"></path>
        <path id="Caminho_38" data-name="Caminho 38" d="M272.346,84.669a5.916,5.916,0,0,1-2.372-2.372,6.812,6.812,0,0,1-.874-3.5,7.031,7.031,0,0,1,.874-3.5,6.409,6.409,0,0,1,2.456-2.372,7.694,7.694,0,0,1,3.579-.832,7.388,7.388,0,0,1,3.121.666,6.555,6.555,0,0,1,2.455,1.914l-2.747,2.331a3.275,3.275,0,0,0-2.664-1.249,2.725,2.725,0,0,0-2.081.832,2.891,2.891,0,0,0-.791,2.164,3.924,3.924,0,0,0,.208,1.249,2.471,2.471,0,0,0,.583.957,3.56,3.56,0,0,0,.916.624,2.836,2.836,0,0,0,1.207.208,3.36,3.36,0,0,0,2.622-1.165l2.83,2.455a6.015,6.015,0,0,1-2.372,1.706,8.19,8.19,0,0,1-3.413.666,6.744,6.744,0,0,1-3.538-.791" transform="translate(-198.349 -65.691)" fill="#686162"></path>
        <path id="Caminho_39" data-name="Caminho 39" d="M304.753,76.029a2.5,2.5,0,0,0-.874,1.5l4.828-.042a2.838,2.838,0,0,0-.458-1.082,2.161,2.161,0,0,0-.791-.708,2.428,2.428,0,0,0-1.082-.25,2.75,2.75,0,0,0-1.623.583m7.866,3.954h-8.74a2.594,2.594,0,0,0,1.04,1.623,3.433,3.433,0,0,0,2,.583,3.936,3.936,0,0,0,3.121-1.54L312.2,83.1a6.348,6.348,0,0,1-2.331,1.79,8,8,0,0,1-3.371.666,7.053,7.053,0,0,1-2.664-.5,6.232,6.232,0,0,1-2.123-1.373,7.014,7.014,0,0,1-1.415-2.123,7.269,7.269,0,0,1-.5-2.705,7.053,7.053,0,0,1,.5-2.664,6.232,6.232,0,0,1,1.373-2.123,6.052,6.052,0,0,1,2.081-1.373,6.691,6.691,0,0,1,2.622-.5,6.812,6.812,0,0,1,3.329.832,5.874,5.874,0,0,1,2.289,2.331,6.974,6.974,0,0,1,.832,3.371c-.083.333-.125.749-.208,1.249" transform="translate(-216.272 -65.749)" fill="#686162"></path>
        <path id="Caminho_40" data-name="Caminho 40" d="M330.988,75.8a2.2,2.2,0,0,1-.707-1.706,2.264,2.264,0,0,1,.707-1.665,2.453,2.453,0,0,1,1.748-.708,2.428,2.428,0,0,1,1.706.708,2.176,2.176,0,0,1,.708,1.665,2.357,2.357,0,0,1-.708,1.706,2.428,2.428,0,0,1-1.706.708,2.384,2.384,0,0,1-1.748-.708m-.125-7.2a2.029,2.029,0,0,1,.042-.5c.042-.166.042-.333.083-.458a1.743,1.743,0,0,1,.166-.416,2.62,2.62,0,0,0,.166-.375.983.983,0,0,1,.25-.375,1.365,1.365,0,0,0,.25-.333c.083-.083.166-.208.291-.333a1.82,1.82,0,0,0,.291-.333l.333-.333a1.821,1.821,0,0,0,.291-.333,4.174,4.174,0,0,0,.458-.5c.125-.125.25-.291.416-.5s.291-.416.375-.541a2.09,2.09,0,0,0,.208-.541,1.517,1.517,0,0,0,.083-.583,1.837,1.837,0,0,0-.416-1.207,1.681,1.681,0,0,0-1.249-.416,2.174,2.174,0,0,0-.874.166,2.878,2.878,0,0,0-.791.416,3.128,3.128,0,0,0-.666.624L327.7,59.114a6.137,6.137,0,0,1,2.414-1.748,7.44,7.44,0,0,1,3.163-.666,7.738,7.738,0,0,1,1.748.208,5.7,5.7,0,0,1,1.581.624,5.248,5.248,0,0,1,1.29,1.04,4.17,4.17,0,0,1,.832,1.457,5.688,5.688,0,0,1,.291,1.956,4.78,4.78,0,0,1-.166,1.373,4.476,4.476,0,0,1-.541,1.207,11.536,11.536,0,0,1-.708.957,8.647,8.647,0,0,1-.874.874c-.125.083-.291.291-.583.541s-.458.416-.583.541a5,5,0,0,0-.416.458q-.25.312-.375.5a1.108,1.108,0,0,0-.125.5l-.083,1.04h-3.621Z" transform="translate(-232.561 -56.7)" fill="#686162"></path>
      </g>
      <path id="Caminho_41" data-name="Caminho 41" d="M25.943,33.547l2.705-2.705A9.3,9.3,0,0,0,15.5,17.691L12.25,20.937c-.042.042-.083.042-.125.083L.306,32.881a.93.93,0,0,0,0,1.332L15.538,49.445A9.3,9.3,0,0,0,28.69,36.294Z" transform="translate(0 -8.743)" fill="#686162"></path>
      <path id="Caminho_42" data-name="Caminho 42" d="M104.124,24.364a2.53,2.53,0,0,0,1-1.082,3.526,3.526,0,0,0,0-3.163,2.63,2.63,0,0,0-2.455-1.457,2.576,2.576,0,0,0-1.956.832A3.056,3.056,0,0,0,99.92,21.7a3.221,3.221,0,0,0,.749,2.206,2.576,2.576,0,0,0,1.956.832,2.859,2.859,0,0,0,1.5-.375m5.327-9.114V33.312h-4.12V26.861h-.042a4.328,4.328,0,0,1-3.454,1.5,6.032,6.032,0,0,1-3.121-.832A5.862,5.862,0,0,1,96.549,25.2a7.723,7.723,0,0,1-.749-3.5A8.2,8.2,0,0,1,96.258,19a5.973,5.973,0,0,1,1.249-2.123A5.6,5.6,0,0,1,99.379,15.5a5.449,5.449,0,0,1,2.331-.5,4.653,4.653,0,0,1,3.662,1.623h.042V15.25Z" transform="translate(-55.915 -8.757)" fill="#686162"></path>
      <path id="Caminho_43" data-name="Caminho 43" d="M145.044,15.6V28.46h-4.12V27h-.083a4.575,4.575,0,0,1-3.621,1.706q-4.62,0-4.62-5.494V15.6h4.12v6.617a4.149,4.149,0,0,0,.458,2.206,1.721,1.721,0,0,0,1.5.666A1.936,1.936,0,0,0,140.3,24.3a3.655,3.655,0,0,0,.624-2.289V15.6Z" transform="translate(-77.4 -9.108)" fill="#686162"></path>
      <path id="Caminho_44" data-name="Caminho 44" d="M170.353,18.829a2.5,2.5,0,0,0-.874,1.5l4.828-.042a2.838,2.838,0,0,0-.458-1.082,2.162,2.162,0,0,0-.791-.708,2.428,2.428,0,0,0-1.082-.25,2.75,2.75,0,0,0-1.623.583m7.866,3.954h-8.74a2.436,2.436,0,0,0,1.04,1.623,3.434,3.434,0,0,0,2,.583,3.936,3.936,0,0,0,3.121-1.54L177.8,25.9a6.348,6.348,0,0,1-2.331,1.79,8,8,0,0,1-3.371.666,7.053,7.053,0,0,1-2.664-.5,6.232,6.232,0,0,1-2.123-1.373,7.013,7.013,0,0,1-1.415-2.123,7.269,7.269,0,0,1-.5-2.705A7.053,7.053,0,0,1,165.9,19a6.231,6.231,0,0,1,1.373-2.123,6.052,6.052,0,0,1,2.081-1.373,6.691,6.691,0,0,1,2.622-.5,6.812,6.812,0,0,1,3.329.832,5.874,5.874,0,0,1,2.289,2.331,6.974,6.974,0,0,1,.832,3.371c-.083.333-.125.749-.208,1.249" transform="translate(-96.549 -8.757)" fill="#686162"></path>
      <path id="Caminho_45" data-name="Caminho 45" d="M217.246,15.38a3.712,3.712,0,0,1,1.415.957,4.358,4.358,0,0,1,.957,1.748,9.253,9.253,0,0,1,.333,2.58v7.491h-4.079V21.623c0-1.914-.624-2.913-1.873-2.913a1.84,1.84,0,0,0-1.54.791,3.4,3.4,0,0,0-.583,2.206v6.451H207.8V21.623c0-1.914-.624-2.913-1.873-2.913a1.879,1.879,0,0,0-1.582.749,3.4,3.4,0,0,0-.624,2.206v6.451H199.6V15.3h4.12v1.457h.083a5.3,5.3,0,0,1,1.665-1.249,4.6,4.6,0,0,1,1.956-.416,3.979,3.979,0,0,1,3.662,1.831h.083a5.316,5.316,0,0,1,4.328-1.831,4.182,4.182,0,0,1,1.748.291" transform="translate(-116.515 -8.804)" fill="#686162"></path>
      <path id="Caminho_46" data-name="Caminho 46" d="M273.648,15.149a2.99,2.99,0,0,0,.791-2.206,3.288,3.288,0,0,0-.375-1.581,2.63,2.63,0,0,0-2.455-1.457,2.576,2.576,0,0,0-1.956.832,3.056,3.056,0,0,0-.791,2.206,3.056,3.056,0,0,0,.791,2.206,2.575,2.575,0,0,0,1.956.832,2.76,2.76,0,0,0,2.039-.832M278.392,0V19.352H274.48V17.979h-.042a4.426,4.426,0,0,1-3.662,1.623,6.168,6.168,0,0,1-2.455-.5,5.839,5.839,0,0,1-1.914-1.332,5.973,5.973,0,0,1-1.249-2.123,8.221,8.221,0,0,1,0-5.41,5.973,5.973,0,0,1,1.249-2.123,5.6,5.6,0,0,1,1.873-1.373,5.449,5.449,0,0,1,2.331-.5,4.653,4.653,0,0,1,3.662,1.623h.042V0Z" transform="translate(-154.522)" fill="#686162"></path>
      <path id="Caminho_47" data-name="Caminho 47" d="M301.8,6.784h4.079v12.86H301.8Zm.25-2.206a2.241,2.241,0,0,1-.749-1.706,2.543,2.543,0,0,1,.333-1.249,2.188,2.188,0,0,1,.916-.832A3.259,3.259,0,0,1,303.839.5a2.618,2.618,0,0,1,1.831.666,2.241,2.241,0,0,1,.749,1.706,2.122,2.122,0,0,1-.749,1.706,2.549,2.549,0,0,1-1.831.666,2.45,2.45,0,0,1-1.79-.666" transform="translate(-175.89 -0.292)" fill="#686162"></path>
      <path id="Caminho_48" data-name="Caminho 48" d="M314.9,26.445l1.956-2.747a4.926,4.926,0,0,0,3.371,1.457,2.519,2.519,0,0,0,.624-.083.606.606,0,0,0,.375-.25.671.671,0,0,0,.125-.375c0-.166-.125-.333-.416-.5a7.066,7.066,0,0,0-1.54-.583,5.94,5.94,0,0,1-.916-.333c-.291-.125-.541-.25-.832-.375a5.9,5.9,0,0,1-.749-.458,4,4,0,0,1-.624-.583,2.733,2.733,0,0,1-.5-.708,2.826,2.826,0,0,1-.291-.832,4.107,4.107,0,0,1-.125-1,3.779,3.779,0,0,1,.624-2.164A3.947,3.947,0,0,1,317.73,15.5a5.751,5.751,0,0,1,2.455-.5,8.424,8.424,0,0,1,1.79.166,7.1,7.1,0,0,1,1.581.541,9.658,9.658,0,0,1,1.5.916L323.1,19.578a4.339,4.339,0,0,0-1.457-1,3.336,3.336,0,0,0-1.457-.333,1,1,0,0,0-.624.166.471.471,0,0,0-.291.5q0,.25.375.5a6.565,6.565,0,0,0,1.29.583c.333.125.583.208.832.291.208.083.458.166.708.291s.5.208.666.291.375.208.583.333.375.25.5.333a3.752,3.752,0,0,0,.416.375,3.178,3.178,0,0,1,.333.458,2.549,2.549,0,0,1,.208.5,3.469,3.469,0,0,1,.166.624,3.807,3.807,0,0,1,.042.708,4.241,4.241,0,0,1-.333,1.665,3.28,3.28,0,0,1-.957,1.29,4.311,4.311,0,0,1-1.623.874,7.581,7.581,0,0,1-2.289.333,7.726,7.726,0,0,1-5.286-1.914" transform="translate(-183.83 -8.757)" fill="#686162"></path>
      <path id="Caminho_49" data-name="Caminho 49" d="M340.6,26.445l1.956-2.747a4.926,4.926,0,0,0,3.371,1.457,2.519,2.519,0,0,0,.624-.083.606.606,0,0,0,.375-.25.671.671,0,0,0,.125-.375c0-.166-.125-.333-.416-.5a7.068,7.068,0,0,0-1.54-.583,5.939,5.939,0,0,1-.916-.333c-.291-.125-.541-.25-.832-.375a5.907,5.907,0,0,1-.749-.458,4,4,0,0,1-.624-.583,2.734,2.734,0,0,1-.5-.708,2.826,2.826,0,0,1-.291-.832,4.1,4.1,0,0,1-.125-1,3.779,3.779,0,0,1,.624-2.164A3.947,3.947,0,0,1,343.43,15.5a5.751,5.751,0,0,1,2.455-.5,8.424,8.424,0,0,1,1.79.166,7.1,7.1,0,0,1,1.581.541,9.66,9.66,0,0,1,1.5.916L348.8,19.578a4.338,4.338,0,0,0-1.457-1,3.336,3.336,0,0,0-1.457-.333,1,1,0,0,0-.624.166.471.471,0,0,0-.291.5q0,.25.375.5a6.565,6.565,0,0,0,1.29.583c.333.125.583.208.832.291.208.083.458.166.708.291s.5.208.666.291.375.208.583.333.375.25.5.333a3.757,3.757,0,0,0,.416.375,3.171,3.171,0,0,1,.333.458,2.542,2.542,0,0,1,.208.5,3.459,3.459,0,0,1,.166.624,3.807,3.807,0,0,1,.042.708,4.241,4.241,0,0,1-.333,1.665,3.28,3.28,0,0,1-.957,1.29,4.311,4.311,0,0,1-1.623.874,8.191,8.191,0,0,1-7.574-1.581" transform="translate(-198.834 -8.757)" fill="#686162"></path>
      <path id="Caminho_50" data-name="Caminho 50" d="M371.753,18.829a2.5,2.5,0,0,0-.874,1.5l4.828-.042a2.838,2.838,0,0,0-.458-1.082,2.162,2.162,0,0,0-.791-.708,2.428,2.428,0,0,0-1.082-.25,2.75,2.75,0,0,0-1.623.583m7.866,3.954h-8.74a2.436,2.436,0,0,0,1.04,1.623,3.433,3.433,0,0,0,2,.583,3.936,3.936,0,0,0,3.121-1.54L379.2,25.9a6.348,6.348,0,0,1-2.331,1.79,8,8,0,0,1-3.371.666,7.053,7.053,0,0,1-2.664-.5,6.231,6.231,0,0,1-2.123-1.373,7.013,7.013,0,0,1-1.415-2.123,7.269,7.269,0,0,1-.5-2.705A7.053,7.053,0,0,1,367.3,19a6.232,6.232,0,0,1,1.373-2.123,6.052,6.052,0,0,1,2.081-1.373,6.691,6.691,0,0,1,2.622-.5,6.812,6.812,0,0,1,3.329.832,5.874,5.874,0,0,1,2.289,2.331,6.974,6.974,0,0,1,.832,3.371c-.083.333-.125.749-.208,1.249" transform="translate(-214.13 -8.757)" fill="#686162"></path>
      <path id="Caminho_51" data-name="Caminho 51" d="M401.713,45.66l1.04-3.5a1.788,1.788,0,0,0,.083-.5,1.6,1.6,0,0,0-.5-1.207,1.875,1.875,0,0,0-1.29-.458,2.268,2.268,0,0,0-.916.208,1.781,1.781,0,0,0-.666.583,1.4,1.4,0,0,0-.208.708L398.8,45.66Z" transform="translate(-232.812 -23.353)" fill="#686162"></path>
    </g>
  </svg>