<svg width="16" height="18" fill="none" xmlns="http://www.w3.org/2000/svg"><path d="M15.992 17.535l-2.15-13.879a.397.397 0 0 0-.126-.235.364.364 0 0 0-.24-.094h-2.68v-.304a3.065 3.065 0 0 0-.188-1.15c-.136-.366-.34-.7-.6-.982a2.798 2.798 0 0 0-.919-.66 2.686 2.686 0 0 0-2.18 0 2.798 2.798 0 0 0-.918.66c-.26.282-.465.616-.6.982-.136.366-.2.757-.189 1.15v.304H2.525a.363.363 0 0 0-.24.093.397.397 0 0 0-.126.234L.01 17.535a.405.405 0 0 0 .074.327.366.366 0 0 0 .282.138h15.26a.35.35 0 0 0 .293-.138.396.396 0 0 0 .074-.327zM5.944 3.023c-.01-.29.037-.578.136-.848s.249-.517.44-.725c.192-.209.422-.374.676-.487a1.973 1.973 0 0 1 1.607 0c.254.113.483.278.675.487.192.208.342.455.44.725.1.27.146.559.136.848v.304h-4.11v-.304zM.811 17.208L2.84 4.105h2.361v1.46a.4.4 0 0 0 .109.274c.07.073.164.114.262.114a.363.363 0 0 0 .263-.114.4.4 0 0 0 .108-.275V4.105h4.11v1.46a.4.4 0 0 0 .109.274c.07.073.164.114.262.114a.363.363 0 0 0 .263-.114.4.4 0 0 0 .108-.275V4.105h2.363l2.031 13.1-14.38.003z" fill="#fff"/></svg>