<svg width="92" height="98" fill="none" xmlns="http://www.w3.org/2000/svg"><path fill-rule="evenodd" clip-rule="evenodd" d="M.704 29.315v39.127h19.504l29.315 29.316V0L20.208 29.315H.704zM79.795 19.982c-3.709-3.829-9.452 1.915-5.743 5.744 13.042 13.042 13.042 34.22 0 47.263-3.829 3.829 2.034 9.572 5.743 5.743 16.273-16.153 16.273-42.596 0-58.75z" fill="#000"/><path fill-rule="evenodd" clip-rule="evenodd" d="M69.864 29.914c-3.829-3.83-9.452 1.914-5.743 5.743 7.538 7.538 7.538 19.863 0 27.4-3.829 3.83 1.915 9.573 5.743 5.744 10.77-10.769 10.77-28.119 0-38.887z" fill="#000"/><path fill-rule="evenodd" clip-rule="evenodd" d="M59.933 39.845c-3.83-3.71-9.572 2.034-5.743 5.743 2.034 2.034 2.034 5.504 0 7.538-3.83 3.83 2.034 9.453 5.743 5.744a13.433 13.433 0 0 0 0-19.025z" fill="#000"/></svg>