<svg width="22" height="22" fill="none" xmlns="http://www.w3.org/2000/svg"><path d="M10.902 21.595c-1.475 0-2.862-.281-4.162-.844a10.84 10.84 0 0 1-3.397-2.291 10.842 10.842 0 0 1-2.291-3.397A10.364 10.364 0 0 1 .208 10.9c0-1.474.281-2.857.844-4.15a11.019 11.019 0 0 1 2.291-3.397A10.746 10.746 0 0 1 6.74 1.052C8.04.489 9.427.208 10.902.208c1.474 0 2.857.281 4.15.844a10.918 10.918 0 0 1 3.397 2.302c.972.973 1.74 2.106 2.302 3.398.563 1.292.844 2.675.844 4.15 0 1.474-.281 2.861-.843 4.16a10.748 10.748 0 0 1-2.303 3.398 11.019 11.019 0 0 1-3.398 2.291 10.283 10.283 0 0 1-4.15.844zm0-19.95a8.978 8.978 0 0 0-3.603.729 9.38 9.38 0 0 0-2.941 1.984 9.38 9.38 0 0 0-1.984 2.941 8.978 8.978 0 0 0-.73 3.603c0 1.276.244 2.477.73 3.602a9.378 9.378 0 0 0 1.984 2.941 9.38 9.38 0 0 0 2.941 1.984 8.977 8.977 0 0 0 3.603.73 8.977 8.977 0 0 0 3.602-.73 9.38 9.38 0 0 0 2.941-1.984 9.378 9.378 0 0 0 1.984-2.941 8.977 8.977 0 0 0 .73-3.602 8.977 8.977 0 0 0-.73-3.603 9.381 9.381 0 0 0-1.984-2.941 9.379 9.379 0 0 0-2.94-1.984 8.978 8.978 0 0 0-3.603-.73zm1.573 2.804c0-.441-.152-.813-.456-1.117a1.52 1.52 0 0 0-1.117-.456c-.441 0-.81.152-1.106.456a1.54 1.54 0 0 0-.445 1.117c0 .44.148.813.445 1.117.296.304.665.456 1.106.456.44 0 .813-.152 1.117-.456a1.52 1.52 0 0 0 .456-1.117zm4.172 5.404L14.39 7.892a9.295 9.295 0 0 0-.57-.525 25.794 25.794 0 0 1-.422-.387 2.022 2.022 0 0 0-.308-.251 1.438 1.438 0 0 0-.467-.24 2.14 2.14 0 0 0-.536-.056H9.716a2.14 2.14 0 0 0-.536.057c-.144.038-.3.11-.467.216-.076.06-.179.152-.308.274a25.797 25.797 0 0 1-.73.661 9.148 9.148 0 0 0-.262.25L5.156 9.854a.776.776 0 0 0-.251.479c0 .197.06.372.182.524a.696.696 0 0 0 .49.228.665.665 0 0 0 .514-.16 8.78 8.78 0 0 0 .41-.353c.213-.19.456-.403.73-.638.273-.236.554-.476.843-.719l.73-.615c.137-.122.247-.179.33-.171.084.007.126.117.126.33v1.323c0 .562-.015 1-.046 1.31-.03.312-.053.483-.068.514l-1.026 5.86c-.046.258 0 .479.137.66.121.198.311.32.57.366a.82.82 0 0 0 .66-.149.89.89 0 0 0 .366-.558l.057-.33.136-.833c.092-.555.152-.916.183-1.083l.194-1.106c.098-.57.155-.878.17-.923l.103-.513a.64.64 0 0 0 .023-.149c0-.038.008-.08.023-.125.03-.167.083-.247.16-.24.076.008.129.088.16.24a.4.4 0 0 1 .022.125.64.64 0 0 0 .023.149l.102.513.171.923c.114.616.179.984.194 1.106.015.122.076.483.183 1.083.106.6.152.878.136.832l.057.33c.03.214.13.388.297.525a.875.875 0 0 0 .57.205c.076 0 .129-.007.16-.022.258-.046.448-.168.57-.365.136-.183.182-.403.136-.661l-1.026-5.837c0-.046-.019-.225-.057-.536a11.523 11.523 0 0 1-.057-1.311l-.022-1.346c0-.212.045-.319.136-.319.091 0 .206.061.342.183v-.023c.198.182.441.395.73.638s.57.483.844.718c.273.236.516.449.73.639.212.19.349.308.41.353a.702.702 0 0 0 .513.171.627.627 0 0 0 .49-.24.766.766 0 0 0 .17-.524.617.617 0 0 0-.239-.478z" fill="#67605F"/></svg>