<svg width="31" height="27" fill="none" xmlns="http://www.w3.org/2000/svg"><path d="M4.5 14.648c.082 1.155.543 4.756 3.1 5.65 1.6.56 2.56 1.83 2.418 2.618-.113.629-.924.704-1.398.707-1.067-.02-1.772.256-2.087.793-.447.759.106 1.711.13 1.754l.095.164h3.787c1.655-.534 3.086-3.601 3.782-5.355a6.335 6.335 0 0 0 1.384 2.29 3.962 3.962 0 0 0-.867-.061c-.994.049-1.656.36-1.988.923-.5.88.103 2 .13 2.049l.092.17h13.206c.043 0 4.455-.262 4.704-4.255.079-1.283-.222-2.187-.901-2.684a2.685 2.685 0 0 0-2.07-.35 5.501 5.501 0 0 0-.083-1.69c-2.332-9.75-8.377-8.494-12.375-7.672-.662.137-1.285.265-1.832.327-1.692.213-2.361-.118-2.623-.432a.954.954 0 0 1-.192-.707c3.918-.026 7.121-2.291 8.814-6.275l.146-.327-.358-.102a8.368 8.368 0 0 0-1.54-.278A2.762 2.762 0 0 0 18.037.27l-.073-.194-.209-.016C10.101-.563 6.98 3.872 5.791 6.639c-.834.052-2.65.264-2.98 1.636-.113.435-.75 1.113-1.306 1.712-.828.877-1.61 1.699-1.494 2.4.439 2.293 3.442 2.323 4.489 2.26zm-2.524-4.21c.662-.716 1.308-1.397 1.46-1.993.183-.707 1.034-1.09 2.594-1.172h.202l.132-.3C7.447 4.412 10.34.222 17.454.7c.024.4-.035.8-.172 1.178-5.588-.033-9.98 5.453-10.186 5.715l.524.403c.053-.069 5.3-6.648 11.337-5.274-1.656 3.601-4.667 5.598-8.313 5.526h-.242l-.08.226a1.706 1.706 0 0 0 .262 1.551c.533.655 1.62.874 3.226.671.573-.072 1.21-.203 1.882-.327 3.974-.818 9.413-1.941 11.593 7.142a4.83 4.83 0 0 1 0 1.909l-.143.592.576-.236s1.226-.419 1.965.125c.486.356.698 1.07.636 2.12-.206 3.418-3.925 3.647-4.051 3.657H13.476c-.116-.278-.288-.835-.057-1.247.202-.35.686-.55 1.438-.586a4.062 4.062 0 0 1 2.249.655l.04.026.39-.54h-.043c-.31-.22-2.749-2.02-2.716-4.328a3.62 3.62 0 0 1 .62-1.924c2.153-3.352 5.803-1.69 5.962-1.614l.285-.59c-.043-.019-4.333-1.99-6.804 1.857a4.273 4.273 0 0 0-.715 2.196c-.51 1.545-2.127 5.512-3.743 6.098H7.156a1.129 1.129 0 0 1-.05-.933c.18-.307.683-.468 1.451-.468h.103c1.613 0 1.944-.87 2.01-1.25.219-1.221-1.06-2.723-2.848-3.349-2.56-.896-2.677-5.348-2.677-5.394v-.363l-.364.045c-.036 0-3.706.43-4.11-1.689-.063-.383.728-1.227 1.305-1.842z" fill="#67605F"/><path d="M16.991 3.864l.06-.741c-2.992-.37-6.814 3.893-6.976 4.075l.395.552c.038-.037 3.792-4.223 6.521-3.886z" fill="#67605F"/></svg>