<svg width="20" height="24" fill="none" xmlns="http://www.w3.org/2000/svg"><path d="M18.878 6.223c-.073-.789-.781-1.388-1.619-1.371h-2.51v-.316C14.749 2.031 12.6 0 9.949 0 7.37-.01 5.27 1.958 5.258 4.396c0 .047 0 .094.002.14v.317H2.748c-.818.006-1.496.6-1.563 1.37L.016 19.938a3.488 3.488 0 0 0 1.061 2.849A4 4 0 0 0 3.98 24h12.053a3.91 3.91 0 0 0 2.902-1.213 3.89 3.89 0 0 0 1.06-2.849L18.878 6.223zM6.32 4.536c-.027-1.922 1.6-3.501 3.635-3.527 2.034-.025 3.705 1.513 3.732 3.436V4.853H6.321v-.317zm11.833 17.511a2.868 2.868 0 0 1-2.12.897H3.976c-1.584-.005-2.864-1.224-2.858-2.721 0-.078.004-.155.012-.233L2.302 6.275a.445.445 0 0 1 .503-.423h2.511v1.952c0 .291.25.527.559.527.308 0 .558-.236.558-.527v-1.95H13.8v1.952c0 .291.25.528.558.528.308 0 .558-.237.558-.528V5.855h2.512c.259-.006.479.179.502.423l1.172 13.715a3.41 3.41 0 0 1-.948 2.055z" fill="#fff"/></svg>