<svg width="30" height="30" fill="none" xmlns="http://www.w3.org/2000/svg"><path d="M24.975 18.146l-1.6-1.09a8.59 8.59 0 0 0 .338-2.587l1.854-.638a.477.477 0 0 0 .302-.57l-.74-2.77a.476.476 0 0 0-.546-.342l-1.924.377a8.566 8.566 0 0 0-1.584-2.071l.843-1.746c.098-.218.04-.5-.187-.63l-2.477-1.431c-.227-.131-.487-.061-.64.154l-1.09 1.603a8.568 8.568 0 0 0-2.586-.336l-.635-1.855a.476.476 0 0 0-.57-.301l-2.768.743a.477.477 0 0 0-.343.547l.375 1.924a8.588 8.588 0 0 0-2.072 1.587l-1.744-.841c-.218-.099-.5-.04-.63.187l-1.432 2.48c-.131.227-.062.487.153.64l1.622 1.1a8.588 8.588 0 0 0-.339 2.588l-1.854.638a.477.477 0 0 0-.301.57l.74 2.77a.476.476 0 0 0 .545.342l1.925-.377a8.567 8.567 0 0 0 1.583 2.071l-.854 1.766c-.099.219-.041.5.186.631l2.477 1.43c.227.132.488.062.64-.154l1.102-1.623a8.57 8.57 0 0 0 2.586.336l.635 1.855c.082.24.33.383.57.301l2.768-.744a.477.477 0 0 0 .343-.546l-.375-1.924a8.59 8.59 0 0 0 2.072-1.587l1.765.853c.218.099.5.04.63-.187l1.432-2.48a.557.557 0 0 0-.195-.663zm-1.877 2.25l-1.67-.826a.481.481 0 0 0-.562.116 7.676 7.676 0 0 1-2.342 1.816.467.467 0 0 0-.245.52l.348 1.827-1.889.508-.61-1.758c-.072-.207-.267-.347-.47-.327a7.66 7.66 0 0 1-2.936-.4.481.481 0 0 0-.545.182l-1.099 1.57-1.713-.99.828-1.67a.482.482 0 0 0-.116-.563 7.657 7.657 0 0 1-1.813-2.342c-.085-.187-.303-.286-.52-.245l-1.826.35-.505-1.889 1.757-.611c.207-.074.347-.268.327-.473a8.183 8.183 0 0 1 .381-2.948.481.481 0 0 0-.18-.545L6.17 10.623l.99-1.715 1.67.826a.481.481 0 0 0 .563-.116 7.315 7.315 0 0 1 2.363-1.804.467.467 0 0 0 .245-.52l-.35-1.827 1.89-.507.61 1.757c.073.207.267.347.471.327a8.164 8.164 0 0 1 2.947.379.481.481 0 0 0 .545-.182l1.054-1.54 1.714.99-.828 1.67a.481.481 0 0 0 .116.563 7.296 7.296 0 0 1 1.8 2.363.466.466 0 0 0 .52.245l1.827-.351.505 1.89-1.757.611c-.207.073-.347.268-.328.472a7.676 7.676 0 0 1-.401 2.937.481.481 0 0 0 .18.545l1.55 1.033-.99 1.715.021.012zM18.226 9.29c-2.952-1.705-6.763-.681-8.47 2.274-1.705 2.955-.686 6.767 2.266 8.471 2.952 1.705 6.763.681 8.469-2.274 1.706-2.955.687-6.767-2.265-8.471zm-5.727 9.919c-2.498-1.442-3.36-4.668-1.917-7.168 1.444-2.5 4.669-3.367 7.167-1.925 2.497 1.442 3.36 4.668 1.916 7.169-1.444 2.5-4.668 3.366-7.166 1.924z" fill="#FDFDFD"/></svg>