<svg width="24" height="17" fill="none" xmlns="http://www.w3.org/2000/svg"><path d="M3.098 0h17.698c1.692 0 2.993 1.301 2.993 2.993v10.671c0 1.692-1.301 3.123-2.993 3.123H3.098c-1.692 0-2.994-1.431-2.994-3.123V2.994C.104 1.3 1.406 0 3.098 0zM2.057 1.822l8.328 6.897c.781.65 2.212.65 3.123 0l8.329-6.897c-.26-.26-.65-.52-1.041-.52H3.098c-.39 0-.781.26-1.041.52zm20.43 1.301L14.42 9.76c-1.431 1.171-3.643 1.171-4.945 0L1.406 3.123v10.541c0 .911.78 1.692 1.692 1.692h17.698c.91 0 1.692-.78 1.692-1.692V3.124z" fill="#FDFDFD"/></svg>