<svg width="46" height="40" fill="none" xmlns="http://www.w3.org/2000/svg"><path d="M36.867.425a3.204 3.204 0 0 0-.985.113L2.449 9.734c-1.757.483-2.807 2.352-2.337 4.155l1.816 6.957v13.221c0 1.867 1.486 3.394 3.305 3.394h31.956a5.301 5.301 0 0 1-.549-1.436H5.233c-1.068 0-1.906-.861-1.906-1.958V14.15c0-1.096.838-1.956 1.906-1.956h34.612c1.068 0 1.906.86 1.906 1.956v15.495c.475.015.946.097 1.398.246v-3.764c1.426-.68 2.221-2.341 1.8-3.952l-1.8-6.9V14.15c0-.893-.343-1.705-.897-2.313l-2.323-8.9C39.547 1.47 38.273.483 36.867.424zm-.237 1.433c.89-.059 1.706.523 1.948 1.45l.115.439-25.488 7.011H5.233c-1.722 0-3.143 1.368-3.29 3.098l-.366.1-.114-.44c-.277-1.058.317-2.112 1.348-2.396l33.433-9.197c.13-.035.258-.056.386-.065zM40 8.756l.543 2.08a3.194 3.194 0 0 0-.698-.078h-7.123L40 8.756zm3.15 12.063l.45 1.727a1.97 1.97 0 0 1-.45 1.846V20.82zm-4.566 8.833l-15.272.135a.735.735 0 0 0-.534.227.772.772 0 0 0-.219.55.789.789 0 0 0 .228.547.75.75 0 0 0 .538.218l14.643-.129c.392-.41.847-.75 1.347-1.009a.77.77 0 0 0-.278-.394.738.738 0 0 0-.453-.145zm-18.912.027l-9.055.08a.735.735 0 0 0-.535.227.774.774 0 0 0-.218.55.789.789 0 0 0 .227.546.748.748 0 0 0 .539.219l9.054-.08a.734.734 0 0 0 .535-.227.772.772 0 0 0 .219-.55.789.789 0 0 0-.228-.547.75.75 0 0 0-.538-.218zm21.919.653c-2.43 0-4.41 2.033-4.41 4.526 0 2.494 1.98 4.527 4.41 4.527 2.429 0 4.409-2.033 4.409-4.526 0-2.494-1.98-4.527-4.41-4.527zm0 1.06c1.87 0 3.376 1.546 3.376 3.466 0 1.921-1.505 3.467-3.376 3.467-1.872 0-3.377-1.546-3.377-3.467 0-1.92 1.505-3.466 3.377-3.466zM15.14 32.506a.245.245 0 0 0-.22.133l-.88 1.564a.262.262 0 0 0 .086.36.246.246 0 0 0 .347-.103l.88-1.564a.263.263 0 0 0-.087-.354.245.245 0 0 0-.126-.036zm26.45.117c-.929 0-1.686.756-1.724 1.7l-.001.024v.42a.225.225 0 0 0-.091.182v1.92c0 .124.098.225.22.225h3.194c.122 0 .22-.1.22-.226v-1.92a.225.225 0 0 0-.091-.18v-.022-.423c-.038-.945-.797-1.7-1.726-1.7zm-28.459.416l-2.774.041a.495.495 0 0 0-.352.156.521.521 0 0 0 .01.727.494.494 0 0 0 .357.146l2.774-.042a.495.495 0 0 0 .352-.156.52.52 0 0 0-.01-.726.494.494 0 0 0-.357-.146zm6.009 0l-2.775.041a.495.495 0 0 0-.352.156.521.521 0 0 0 .01.727.494.494 0 0 0 .357.146l2.774-.042a.49.49 0 0 0 .352-.156.514.514 0 0 0 .142-.365.528.528 0 0 0-.152-.361.5.5 0 0 0-.356-.146zm22.463.315c.055 0 .111.007.166.018.445.072.803.49.816.952.002.133.002.267.002.4h-1.996v-.342c.01-.138.03-.295.092-.427a.999.999 0 0 1 .92-.601zm-.108 1.742h.192c.035 0 .062.03.062.065v.57a.32.32 0 0 1 .16.269c0 .18-.143.326-.318.326a.323.323 0 0 1-.318-.326.32.32 0 0 1 .16-.27v-.57c0-.034.028-.064.062-.064z" fill="#8D8887"/></svg>