<svg width="23" height="33" fill="none" xmlns="http://www.w3.org/2000/svg"><path d="M11.623 0a11.383 11.383 0 0 0-8.045 3.33 11.361 11.361 0 0 0-3.333 8.037c0 5.866 9.543 19.11 10.644 20.603l.734 1.03.734-1.03C13.457 30.477 23 17.233 23 11.367c0-3.015-1.199-5.906-3.332-8.038A11.383 11.383 0 0 0 11.623 0zm0 29.817c-2.261-3.23-9.506-13.94-9.506-18.45a9.492 9.492 0 0 1 2.784-6.715 9.51 9.51 0 0 1 13.443 0 9.492 9.492 0 0 1 2.784 6.715c0 4.51-7.245 15.22-9.505 18.45z" fill="#67605F"/><path d="M11.623 4.726a5.413 5.413 0 0 0-4.998 3.337 5.4 5.4 0 0 0 1.173 5.89 5.411 5.411 0 0 0 9.235-3.822 5.41 5.41 0 0 0-1.587-3.82 5.42 5.42 0 0 0-3.823-1.585zM8.07 10.131a3.547 3.547 0 0 1 2.193-3.28 3.556 3.556 0 0 1 4.844 2.588 3.547 3.547 0 0 1-1.51 3.643 3.555 3.555 0 0 1-5.527-2.95z" fill="#67605F"/></svg>