<svg width="22" height="22" viewBox="0 0 22 22" fill="none" xmlns="http://www.w3.org/2000/svg">
<path d="M10.9016 21.5951C9.42711 21.5951 8.04007 21.3139 6.74042 20.7514C5.44078 20.189 4.30834 19.4252 3.34311 18.4599C2.37788 17.4947 1.61405 16.3622 1.05164 15.0626C0.489217 13.763 0.208008 12.3759 0.208008 10.9015C0.208008 9.42702 0.489217 8.04377 1.05164 6.75173C1.61405 5.45968 2.37788 4.32724 3.34311 3.3544C4.30834 2.38157 5.44078 1.61394 6.74042 1.05152C8.04007 0.489096 9.42711 0.207886 10.9016 0.207886C12.376 0.207886 13.7593 0.489096 15.0513 1.05152C16.3434 1.61394 17.4758 2.38157 18.4486 3.3544C19.4213 4.32724 20.1891 5.45968 20.7515 6.75173C21.314 8.04377 21.5952 9.42702 21.5952 10.9015C21.5952 12.3759 21.314 13.763 20.7515 15.0627C20.1891 16.3623 19.4214 17.4946 18.4486 18.46C17.4758 19.4252 16.3433 20.1891 15.0513 20.7515C13.7593 21.3139 12.376 21.5951 10.9016 21.5951ZM10.9016 1.64434C9.62472 1.64434 8.42388 1.88755 7.29904 2.37397C6.17421 2.86038 5.19377 3.52161 4.35775 4.35764C3.52172 5.19367 2.8605 6.1741 2.37408 7.29895C1.88766 8.42379 1.64446 9.62463 1.64446 10.9015C1.64446 12.1783 1.88766 13.3791 2.37408 14.504C2.8605 15.6288 3.52172 16.6093 4.35775 17.4452C5.19377 18.2812 6.17421 18.9425 7.29904 19.4289C8.42388 19.9154 9.62472 20.1585 10.9016 20.1585C12.1784 20.1585 13.3792 19.9154 14.5041 19.4289C15.6288 18.9425 16.6094 18.2812 17.4453 17.4452C18.2813 16.6093 18.9426 15.6288 19.429 14.504C19.9155 13.3792 20.1586 12.1783 20.1586 10.9015C20.1586 9.62463 19.9155 8.42379 19.429 7.29895C18.9425 6.1741 18.2813 5.19367 17.4453 4.35764C16.6094 3.52161 15.6288 2.86038 14.5041 2.37397C13.3792 1.88755 12.1784 1.64434 10.9016 1.64434ZM12.4748 4.44884C12.4748 4.00803 12.3229 3.63561 12.0189 3.3316C11.7149 3.02759 11.3425 2.87558 10.9016 2.87558C10.4608 2.87558 10.0922 3.02759 9.7958 3.3316C9.49939 3.63561 9.35119 4.00803 9.35119 4.44884C9.35119 4.88966 9.49939 5.26207 9.7958 5.56608C10.0922 5.87009 10.4608 6.0221 10.9016 6.0221C11.3425 6.0221 11.7149 5.87009 12.0189 5.56608C12.3229 5.26207 12.4748 4.88966 12.4748 4.44884ZM16.6474 9.85264L14.3901 7.89177C14.314 7.81576 14.2266 7.73216 14.1278 7.64096C14.0292 7.54976 13.9266 7.45855 13.82 7.36735C13.668 7.23054 13.5274 7.10134 13.3982 6.97973C13.269 6.85813 13.1664 6.77453 13.0904 6.72893C12.9232 6.60732 12.7674 6.52752 12.623 6.48952C12.4786 6.45151 12.3 6.43251 12.0872 6.43251H9.71589C9.50308 6.43251 9.32447 6.45151 9.18007 6.48952C9.03566 6.52752 8.87986 6.59972 8.71265 6.70612C8.63665 6.76693 8.53405 6.85813 8.40484 6.97973C8.27564 7.10134 8.13503 7.23054 7.98303 7.36735C7.87663 7.45855 7.77402 7.54976 7.67522 7.64096C7.57642 7.73216 7.48901 7.81576 7.41301 7.89177L5.15573 9.85264C5.01893 9.97424 4.93533 10.1339 4.90493 10.3315C4.90493 10.5291 4.96573 10.7039 5.08733 10.8559C5.20894 10.9927 5.37234 11.0687 5.57755 11.0839C5.78276 11.0991 5.95376 11.0459 6.09057 10.9244C6.15137 10.8788 6.28817 10.7609 6.50098 10.5709C6.71379 10.3809 6.95699 10.1681 7.2306 9.93252C7.50421 9.69691 7.78542 9.4575 8.07423 9.21429C8.36304 8.97108 8.60625 8.76587 8.80386 8.59867C8.94066 8.47706 9.05086 8.42006 9.13447 8.42766C9.21807 8.43526 9.25987 8.54547 9.25987 8.75827V10.0807C9.25987 10.6431 9.24467 11.0802 9.21427 11.3917C9.18387 11.7034 9.16107 11.8744 9.14587 11.9048L8.11983 17.7646C8.07423 18.0231 8.11983 18.2435 8.25664 18.4258C8.37824 18.6234 8.56825 18.745 8.82666 18.7906C9.06987 18.8362 9.29027 18.7868 9.48788 18.6424C9.68549 18.4979 9.80709 18.3118 9.85269 18.0838L9.90969 17.7532C9.90969 17.7532 9.95529 17.4758 10.0465 16.9209C10.1377 16.366 10.1985 16.0051 10.2289 15.8379C10.2593 15.6707 10.3239 15.3021 10.4227 14.7321C10.5215 14.1619 10.5785 13.8542 10.5937 13.8087L10.6963 13.2956C10.7115 13.2348 10.7191 13.1854 10.7191 13.1474C10.7191 13.1093 10.7267 13.0674 10.7419 13.022C10.7723 12.8548 10.8255 12.7749 10.9015 12.7826C10.9776 12.7901 11.0307 12.87 11.0612 13.022C11.0764 13.0676 11.0839 13.1094 11.0839 13.1474C11.0839 13.1853 11.0914 13.2348 11.1066 13.2956L11.2092 13.8087C11.2092 13.8087 11.2663 14.1165 11.3802 14.7321C11.4943 15.3476 11.5589 15.7163 11.5741 15.8379C11.5893 15.9595 11.65 16.3206 11.7565 16.9209C11.8628 17.5212 11.9085 17.7988 11.8933 17.7532L11.9502 18.0838C11.9806 18.2966 12.0795 18.4713 12.2467 18.6082C12.4138 18.745 12.6039 18.8134 12.8167 18.8134C12.8927 18.8134 12.9459 18.8058 12.9763 18.7906C13.2347 18.745 13.4246 18.6234 13.5463 18.4258C13.6831 18.2434 13.7287 18.023 13.6831 17.7646L12.6571 11.9276C12.6571 11.882 12.6381 11.7033 12.6001 11.3917C12.5621 11.0802 12.5432 10.6431 12.5432 10.0807L12.5205 8.73544C12.5205 8.52263 12.566 8.41622 12.6573 8.41622C12.7484 8.41622 12.8625 8.47703 12.9993 8.59863V8.57583C13.197 8.75824 13.4401 8.97104 13.7289 9.21425C14.0177 9.45746 14.2989 9.69687 14.5726 9.93248C14.8462 10.1681 15.0894 10.3809 15.3022 10.5709C15.515 10.7609 15.6518 10.8787 15.7126 10.9243C15.8494 11.046 16.0204 11.1029 16.2257 11.0954C16.4309 11.0877 16.5943 11.0079 16.7158 10.8559C16.8375 10.7039 16.8944 10.5291 16.8869 10.3315C16.8792 10.1339 16.7994 9.97424 16.6474 9.85264Z" fill="#67605F"/>
</svg>
