<svg xmlns="http://www.w3.org/2000/svg" class="__card" viewBox="0 0 43.811 27.747"><g transform="translate(0 27.747) rotate(-90)"><path d="M3.651,43.811H24.1a3.651,3.651,0,0,0,3.651-3.651V3.651A3.651,3.651,0,0,0,24.1,0H3.651A3.651,3.651,0,0,0,0,3.651V40.16A3.651,3.651,0,0,0,3.651,43.811ZM26.286,3.651V40.16A2.191,2.191,0,0,1,24.1,42.35h-1.46V1.46H24.1A2.191,2.191,0,0,1,26.286,3.651ZM21.175,1.46V42.35H16.794V1.46ZM1.46,3.651A2.191,2.191,0,0,1,3.651,1.46H15.334V42.35H3.651A2.191,2.191,0,0,1,1.46,40.16Z"/></g></svg>