<svg width="46" height="40" viewBox="0 0 46 40" fill="none" xmlns="http://www.w3.org/2000/svg">
<path d="M36.8673 0.424547C36.5428 0.410838 36.2109 0.4474 35.8815 0.537992L2.44867 9.73404C0.692244 10.2172 -0.358196 12.0862 0.112436 13.8893L1.92842 20.8456V34.0674C1.92842 35.9342 3.4144 37.4607 5.23279 37.4607H37.189C36.9379 37.0127 36.753 36.5289 36.6404 36.0251H5.23279C4.16471 36.0251 3.32683 35.1639 3.32683 34.0674V14.1503C3.32683 13.0538 4.16471 12.1937 5.23279 12.1937H39.845C40.9131 12.1937 41.751 13.0538 41.751 14.1503V29.6451C42.226 29.6596 42.6967 29.7424 43.1494 29.891V26.1273C44.5755 25.4463 45.3701 23.7855 44.9497 22.1748L43.1494 15.2758V14.1503C43.1494 13.257 42.8059 12.4446 42.2517 11.8373L39.9291 2.93639C39.5467 1.47132 38.2734 0.483962 36.8673 0.424547ZM36.6296 1.85817C37.5209 1.79902 38.3358 2.38111 38.5776 3.30785L38.693 3.74657L13.2047 10.7581H5.23279C3.51112 10.7581 2.08968 12.1262 1.94309 13.8562L1.57735 13.9566L1.46293 13.5169C1.18649 12.4577 1.77979 11.4043 2.81147 11.1205L36.2443 1.92342C36.3733 1.88795 36.5023 1.86662 36.6296 1.85817ZM40.0005 8.7562L40.5432 10.8364C40.3176 10.786 40.0848 10.7581 39.845 10.7581H32.7219L40.0005 8.7562ZM43.1494 20.8185L43.6002 22.5463C43.7801 23.2356 43.5872 23.9185 43.1494 24.3925V20.8185ZM38.5845 29.6521L23.3124 29.7866C23.2131 29.7863 23.1147 29.8063 23.0229 29.8453C22.9311 29.8843 22.8477 29.9417 22.7777 30.014C22.7076 30.0863 22.6522 30.1722 22.6147 30.2667C22.5772 30.3611 22.5584 30.4623 22.5592 30.5643C22.56 30.6662 22.5806 30.7671 22.6196 30.8608C22.6587 30.9546 22.7155 31.0395 22.7867 31.1106C22.858 31.1817 22.9422 31.2376 23.0346 31.275C23.1271 31.3125 23.2258 31.3307 23.3251 31.3287L37.9684 31.2002C38.3602 30.7901 38.8151 30.4492 39.315 30.1912C39.2662 30.0324 39.1687 29.8941 39.0371 29.797C38.9054 29.6998 38.7466 29.649 38.5845 29.6521ZM19.6717 29.6792L10.6172 29.7585C10.5178 29.7582 10.4194 29.7782 10.3276 29.8172C10.2358 29.8562 10.1525 29.9136 10.0824 29.9859C10.0124 30.0582 9.95698 30.1441 9.91947 30.2385C9.88197 30.333 9.86309 30.4341 9.86393 30.5361C9.86477 30.6381 9.88532 30.7389 9.92437 30.8327C9.96343 30.9265 10.0202 31.0114 10.0915 31.0825C10.1627 31.1536 10.247 31.2095 10.3394 31.2469C10.4318 31.2843 10.5306 31.3026 10.6299 31.3006L19.6844 31.2212C19.7837 31.2215 19.8822 31.2016 19.9739 31.1626C20.0657 31.1235 20.1491 31.0662 20.2191 30.9939C20.2892 30.9216 20.3446 30.8357 20.3821 30.7412C20.4196 30.6468 20.4385 30.5456 20.4376 30.4436C20.4368 30.3416 20.4162 30.2408 20.3772 30.147C20.3381 30.0533 20.2813 29.9684 20.2101 29.8973C20.1388 29.8262 20.0546 29.7703 19.9622 29.7329C19.8697 29.6954 19.771 29.6772 19.6717 29.6792ZM41.5906 30.3318C39.1614 30.3318 37.1812 32.3647 37.1812 34.8585C37.1812 37.3523 39.1614 39.3853 41.5906 39.3853C44.0198 39.3853 46 37.3523 46 34.8585C46 32.3647 44.0198 30.3318 41.5906 30.3318ZM41.5906 31.3919C43.4617 31.3919 44.9673 32.9376 44.9673 34.8585C44.9673 36.7794 43.4617 38.3251 41.5906 38.3251C39.7195 38.3251 38.2139 36.7794 38.2139 34.8585C38.2139 32.9376 39.7195 31.3919 41.5906 31.3919ZM15.14 32.5063C15.0951 32.5061 15.051 32.5183 15.0123 32.5416C14.9736 32.5649 14.9417 32.5985 14.92 32.6388L14.0399 34.2029C14.0219 34.2322 14.0098 34.2649 14.0044 34.2991C13.999 34.3332 14.0003 34.3682 14.0084 34.4018C14.0165 34.4354 14.0311 34.4669 14.0513 34.4946C14.0716 34.5223 14.097 34.5455 14.1262 34.5628C14.1554 34.5801 14.1877 34.5912 14.2212 34.5954C14.2547 34.5996 14.2886 34.5968 14.321 34.5872C14.3534 34.5776 14.3836 34.5614 14.4097 34.5395C14.4358 34.5176 14.4574 34.4906 14.4731 34.4599L15.3532 32.8958C15.376 32.8569 15.3883 32.8125 15.389 32.7671C15.3897 32.7217 15.3786 32.677 15.3569 32.6374C15.3353 32.5978 15.3038 32.5649 15.2657 32.5418C15.2276 32.5188 15.1842 32.5065 15.14 32.5063ZM41.5906 32.6227C40.661 32.6227 39.9039 33.3785 39.8665 34.3234C39.8659 34.3307 39.8649 34.3404 39.8646 34.3475L39.8656 34.3465C39.8657 34.4976 39.8657 34.6341 39.8656 34.7671C39.8103 34.8078 39.7737 34.8733 39.7737 34.9488V36.8684C39.7737 36.9932 39.8721 37.0942 39.9937 37.0942H43.1885C43.3101 37.0942 43.4076 36.9932 43.4076 36.8684V34.9488C43.4076 34.8735 43.3717 34.8079 43.3166 34.7671V34.746C43.3167 34.6052 43.3167 34.4641 43.3166 34.3234C43.2793 33.3784 42.5202 32.6227 41.5906 32.6227ZM13.1314 33.0394L10.357 33.0805C10.2243 33.0825 10.0977 33.1386 10.0052 33.2364C9.91263 33.3342 9.86174 33.4658 9.86369 33.6021C9.86564 33.7384 9.92025 33.8684 10.0155 33.9633C10.1108 34.0583 10.2389 34.1106 10.3717 34.1086L13.1461 34.0674C13.2788 34.0654 13.4054 34.0093 13.4979 33.9115C13.5905 33.8137 13.6414 33.6822 13.6394 33.5459C13.6375 33.4095 13.5828 33.2796 13.4876 33.1846C13.3923 33.0896 13.2642 33.0374 13.1314 33.0394ZM19.1397 33.0394L16.3653 33.0805C16.2325 33.0825 16.106 33.1386 16.0134 33.2364C15.9209 33.3342 15.87 33.4658 15.872 33.6021C15.8739 33.7384 15.9285 33.8684 16.0238 33.9633C16.1191 34.0583 16.2472 34.1106 16.38 34.1086L19.1543 34.0674C19.2201 34.0664 19.285 34.0521 19.3454 34.0254C19.4058 33.9987 19.4604 33.96 19.5062 33.9115C19.5521 33.8631 19.5881 33.8059 19.6124 33.7431C19.6367 33.6804 19.6487 33.6134 19.6477 33.5459C19.6467 33.4784 19.6328 33.4117 19.6068 33.3497C19.5807 33.2877 19.543 33.2316 19.4959 33.1846C19.4487 33.1376 19.393 33.1005 19.3318 33.0756C19.2707 33.0507 19.2054 33.0384 19.1397 33.0394ZM41.6033 33.3536C41.6583 33.3543 41.7141 33.3607 41.7686 33.3717C42.2139 33.4435 42.572 33.8621 42.5851 34.3244C42.587 34.4571 42.5872 34.5907 42.5871 34.724H40.5912V34.3816C40.6001 34.2444 40.6209 34.0869 40.6831 33.955C40.8365 33.5867 41.218 33.3485 41.6033 33.3536ZM41.4948 35.0964H41.6874C41.7216 35.0964 41.749 35.1256 41.749 35.1607V35.7319C41.842 35.7905 41.9093 35.8851 41.9094 36C41.9094 36.1798 41.7657 36.3263 41.5906 36.3263C41.4155 36.3263 41.2728 36.1798 41.2728 36C41.2728 35.885 41.34 35.7895 41.4331 35.7309V35.1607C41.4332 35.1256 41.4606 35.0964 41.4948 35.0964Z" fill="#8D8887"/>
</svg>
