<svg width="20" height="16" viewBox="0 0 20 16" fill="none" xmlns="http://www.w3.org/2000/svg">
<path d="M18 7.48492L9.79246 15.6925C9.38241 16.1025 8.71759 16.1025 8.30754 15.6925C7.89749 15.2824 7.89749 14.6176 8.30754 14.2075L16.5151 6H13C12.4477 6 12 5.55228 12 5C12 4.44772 12.4477 4 13 4H19C19.5523 4 20 4.44772 20 5V11C20 11.5523 19.5523 12 19 12C18.4477 12 18 11.5523 18 11V7.48492ZM2 8.51508L10.2075 0.307538C10.6176 -0.102513 11.2824 -0.102513 11.6925 0.307538C12.1025 0.717588 12.1025 1.38241 11.6925 1.79246L3.48492 10H7C7.55228 10 8 10.4477 8 11C8 11.5523 7.55228 12 7 12H1C0.447715 12 0 11.5523 0 11V5C0 4.44772 0.447715 4 1 4C1.55228 4 2 4.44772 2 5V8.51508Z" fill="#E48562"/>
</svg>
