<svg xmlns="http://www.w3.org/2000/svg" viewBox="0 0 226.8 226.8"><path d="M224.4 89c-2-5.7-7.3-9.7-13.4-10.2L156.2 75l-28.4-63c-2.5-5.5-7.9-9-13.9-9s-11.4 3.5-13.9 8.9L71.1 75l-55.4 3.9c-6 .4-11.3 4.4-13.3 10.2-2 5.8-.4 12.2 4 16.3l45.3 41.9-17.5 57.5c-1.8 5.8 0 12.1 4.6 16 2.8 2.4 6.4 3.7 10 3.7 2.2 0 4.5-.5 6.5-1.5l5.5-2.6c0 .1.1.1.1.2L102 201c3.8-1.8 5.4-6.4 3.6-10.2-1.8-3.8-6.4-5.4-10.2-3.6l-16.2 7.7c0-.1 0-.1-.1-.2l-30.5 14.4 20.3-66.6-52.1-48.4 64.4-4.5 32.6-71.4L146 89.6l64 4.5-52.2 48.4 20.7 66.6-2-1-43.8-20.9c-3.8-1.8-8.4-.2-10.2 3.6-1.8 3.8-.2 8.3 3.5 10.1l46 21.9c2.1 1 4.3 1.5 6.6 1.5 3.6 0 7.2-1.3 10-3.7 4.6-4 6.4-10.3 4.6-16.1l-17.9-57.4 45.1-41.9c4.4-4 6-10.4 4-16.2z" fill="#00A7E1"/></svg>