<svg width="82" height="82" viewBox="0 0 82 82" fill="none" xmlns="http://www.w3.org/2000/svg">
<path d="M41 0C18.4 0 0 18.4 0 41C0 63.6 18.4 82 41 82C63.6 82 82 63.6 82 41C82 18.4 63.6 0 41 0ZM41 80C19.5 80 2 62.5 2 41C2 19.5 19.5 2 41 2C62.5 2 80 19.5 80 41C80 62.5 62.5 80 41 80Z" fill="#E48562"/>
<path d="M61.4998 26.2L33.8998 53.7L20.4998 40.3C20.0998 39.9 19.4998 39.9 19.0998 40.3C18.6998 40.7 18.6998 41.3 19.0998 41.7L33.1998 55.8C33.3998 56 33.6998 56.1 33.8998 56.1C34.0998 56.1 34.3998 56 34.5998 55.8L62.8998 27.5C63.2998 27.1 63.2998 26.5 62.8998 26.1C62.4998 25.7 61.8998 25.8 61.4998 26.2Z" fill="#E48562"/>
</svg>
