<svg xmlns="http://www.w3.org/2000/svg" class="__cosmetics" viewBox="0 0 33.448 35"><g transform="translate(-8.724)"><path d="M18.105,44.474h-.383V41.365a.667.667,0,0,0-.667-.667H17V34.337a.667.667,0,0,0-.369-.6l-5.163-2.582a.667.667,0,0,0-.966.6V40.7h-.057a.667.667,0,0,0-.667.667v3.109H9.391a.667.667,0,0,0-.667.667V62.654a.667.667,0,0,0,.667.667h8.714a.667.667,0,0,0,.667-.667V45.141A.667.667,0,0,0,18.105,44.474Zm-6.271-11.64,3.829,1.915V40.7H11.834Zm-.724,9.2h5.278v2.442H11.11Zm6.328,19.955h-7.38V45.808h7.38Z" transform="translate(0 -28.322)"/><path d="M148.439,304.276H126.768a.667.667,0,1,0,0,1.334h20.61l-.153.317a5.089,5.089,0,0,1-4.561,2.867h-15.9a.667.667,0,1,0,0,1.334h15.9a6.43,6.43,0,0,0,5.764-3.623l.613-1.274a.667.667,0,0,0-.6-.956Z" transform="translate(-106.935 -277.207)"/><path d="M104.809,4.906a13.426,13.426,0,1,1,17.72,20.164.667.667,0,1,0,.855,1.024A14.761,14.761,0,1,0,103.9,3.927a.667.667,0,1,0,.907.979Z" transform="translate(-86.516)"/></g></svg>