<svg width="30" height="30" viewBox="0 0 30 30" fill="none" xmlns="http://www.w3.org/2000/svg">
<path d="M24.9753 18.1459L23.3748 17.0566C23.6185 16.2054 23.7352 15.3359 23.7129 14.4688L25.5673 13.8311C25.8072 13.7492 25.9298 13.4893 25.8688 13.2612L25.1283 10.4917C25.0673 10.2636 24.8316 10.0999 24.5829 10.1492L22.6588 10.5262C22.2456 9.76413 21.7108 9.0696 21.075 8.45457L21.9176 6.70916C22.0162 6.49059 21.9585 6.20926 21.7314 6.07816L19.2543 4.648C19.0272 4.51691 18.7667 4.58689 18.6148 4.80229L17.5245 6.40468C16.674 6.16162 15.8051 6.04573 14.9385 6.06891L14.3029 4.21407C14.2213 3.97407 13.9617 3.85172 13.7337 3.91295L10.9649 4.65648C10.7369 4.71771 10.5731 4.95378 10.6221 5.20253L10.9971 7.12736C10.235 7.54154 9.54034 8.07732 8.92503 8.71401L7.1814 7.87265C6.96305 7.77413 6.68182 7.83219 6.55057 8.05951L5.11883 10.5394C4.98759 10.7667 5.05728 11.0274 5.27241 11.1791L6.89351 12.2804C6.64977 13.1316 6.53311 14.0011 6.55545 14.8681L4.70102 15.5058C4.46107 15.5877 4.33854 15.8476 4.39952 16.0757L5.13998 18.8453C5.20096 19.0734 5.43674 19.2371 5.6854 19.1878L7.60952 18.8107C8.02274 19.5728 8.55755 20.2674 9.1933 20.8824L8.3388 22.6485C8.24013 22.867 8.29789 23.1484 8.52496 23.2795L11.0021 24.7096C11.2291 24.8407 11.4897 24.7707 11.6416 24.5553L12.7438 22.9323C13.5943 23.1753 14.4632 23.2912 15.3298 23.268L15.9654 25.1229C16.047 25.3629 16.2947 25.5059 16.5346 25.424L19.3034 24.6805C19.5314 24.6192 19.6952 24.3832 19.6462 24.1344L19.2712 22.2096C20.0333 21.7954 20.728 21.2596 21.3433 20.623L23.1075 21.4762C23.3259 21.5747 23.6071 21.5167 23.7384 21.2894L25.1701 18.8095C25.2601 18.5584 25.1904 18.2977 24.9753 18.1459ZM23.0981 20.3962L21.4283 19.5699C21.2306 19.4833 21.0145 19.5239 20.8658 19.686C20.2115 20.438 19.4159 21.0532 18.5236 21.5024C18.3249 21.6081 18.2382 21.806 18.2785 22.0222L18.6273 23.8493L16.7381 24.3566L16.1286 22.5995C16.0557 22.3921 15.8612 22.2523 15.6571 22.2722C14.6602 22.3303 13.6642 22.1962 12.7224 21.8729C12.5128 21.807 12.3054 21.8801 12.1774 22.0542L11.0784 23.624L9.36506 22.6348L10.1925 20.9633C10.2792 20.7654 10.2389 20.5492 10.077 20.4006C9.32607 19.7467 8.71191 18.9512 8.26384 18.0588C8.179 17.872 7.96064 17.7735 7.74455 17.8141L5.91816 18.1649L5.4129 16.275L7.16961 15.6636C7.37698 15.5904 7.51693 15.3957 7.49724 15.1915C7.44005 14.1941 7.57509 13.1974 7.87849 12.2429C7.94458 12.033 7.87167 11.8256 7.69782 11.6977L6.17122 10.6234L7.16151 8.90821L8.83128 9.73448C9.029 9.82108 9.24508 9.78051 9.39375 9.61836C10.0481 8.86642 10.8437 8.25116 11.7567 7.8139C11.9553 7.70817 12.0421 7.51026 12.0017 7.29409L11.6529 5.46702L13.5422 4.95967L14.1516 6.71676C14.2245 6.92418 14.419 7.06402 14.6232 7.04412C15.6201 6.98595 16.616 7.1201 17.5697 7.42275C17.7794 7.48868 17.9868 7.41553 18.1148 7.24146L19.1693 5.70106L20.8826 6.69025L20.0552 8.36175C19.9684 8.55965 20.0088 8.77582 20.1707 8.92441C20.9216 9.57837 21.5358 10.3738 21.9719 11.2869C22.0774 11.4856 22.2751 11.5722 22.4912 11.5316L24.3176 11.1808L24.8228 13.0707L23.0661 13.6821C22.8588 13.7553 22.7188 13.95 22.7385 14.1543C22.7957 15.1517 22.6606 16.1483 22.3366 17.0909C22.2705 17.3007 22.3434 17.5082 22.5173 17.6361L24.0677 18.669L23.0774 20.3843L23.0981 20.3962ZM18.2259 9.28951C15.2741 7.58524 11.4629 8.6087 9.75678 11.5639C8.05062 14.519 9.06984 18.3313 12.0217 20.0355C14.9736 21.7398 18.7847 20.7163 20.4909 17.7612C22.197 14.806 21.1778 10.9938 18.2259 9.28951ZM12.499 19.2089C10.0012 17.7668 9.13881 14.5411 10.5825 12.0406C12.0262 9.54005 15.2509 8.67406 17.7487 10.1161C20.2464 11.5582 21.1089 14.784 19.6652 17.2845C18.2215 19.785 14.9967 20.651 12.499 19.2089Z" fill="#FDFDFD"/>
</svg>
