<svg width="23" height="19" viewBox="0 0 23 19" fill="none" xmlns="http://www.w3.org/2000/svg">
<path d="M11.1503 3.53732L11.5 3.87959L11.8497 3.53732L13.3914 2.02851C15.4757 -0.0113849 18.8643 -0.00747146 20.9442 2.02806C23.022 4.06158 23.0154 7.36215 20.9437 9.38962L15.4508 14.7654L11.4951 18.3313C11.4434 18.286 11.3866 18.2361 11.3253 18.1823C11.0157 17.9102 10.5906 17.5356 10.1287 17.1249C9.20159 16.3006 8.1373 15.341 7.55654 14.7726L2.05628 9.38962C-0.0153681 7.36215 -0.0219969 4.06158 2.05583 2.02806C4.13571 -0.00747146 7.52425 -0.0113849 9.60859 2.02851L11.1503 3.53732Z" stroke="#67605F"/>
</svg>
