<svg width="23" height="33" viewBox="0 0 23 33" fill="none" xmlns="http://www.w3.org/2000/svg">
<path d="M11.6227 0C8.60525 0 5.71137 1.19756 3.57771 3.32922C1.44404 5.46088 0.245361 8.35204 0.245361 11.3667C0.245361 17.2333 9.78765 30.4773 10.8887 31.9697L11.6227 33L12.3567 31.9697C13.4578 30.4773 23.0001 17.2333 23.0001 11.3667C23.0001 8.35204 21.8014 5.46088 19.6677 3.32922C17.534 1.19756 14.6402 0 11.6227 0ZM11.6227 29.8173C9.36192 26.587 2.11712 15.8767 2.11712 11.3667C2.11712 8.84799 3.1186 6.43248 4.90124 4.65151C6.68388 2.87054 9.10167 1.87 11.6227 1.87C14.1437 1.87 16.5615 2.87054 18.3442 4.65151C20.1268 6.43248 21.1283 8.84799 21.1283 11.3667C21.1283 15.8767 13.8835 26.587 11.6227 29.8173Z" fill="#67605F"/>
<path d="M11.6229 4.72642C10.5529 4.72642 9.507 5.0434 8.61738 5.63727C7.72776 6.23114 7.03438 7.07523 6.62493 8.0628C6.21548 9.05037 6.10835 10.1371 6.31708 11.1855C6.52582 12.2339 7.04105 13.1969 7.79761 13.9527C8.55417 14.7086 9.51809 15.2233 10.5675 15.4319C11.6169 15.6404 12.7046 15.5334 13.6931 15.1243C14.6816 14.7153 15.5265 14.0225 16.1209 13.1337C16.7153 12.2449 17.0326 11.2 17.0326 10.1311C17.0306 8.69827 16.4601 7.3247 15.446 6.31155C14.4319 5.2984 13.057 4.72836 11.6229 4.72642ZM8.07021 10.1311C8.07021 9.42908 8.27857 8.74286 8.66894 8.15918C9.05931 7.57549 9.61416 7.12057 10.2633 6.85193C10.9125 6.58329 11.6268 6.513 12.316 6.64995C13.0051 6.7869 13.6381 7.12494 14.135 7.62132C14.6318 8.1177 14.9702 8.75013 15.1073 9.43864C15.2443 10.1271 15.174 10.8408 14.9051 11.4893C14.6362 12.1379 14.1808 12.6922 13.5966 13.0822C13.0124 13.4722 12.3255 13.6804 11.6229 13.6804C10.6809 13.6794 9.77787 13.3052 9.11183 12.6398C8.44579 11.9743 8.07118 11.0721 8.07021 10.1311Z" fill="#67605F"/>
</svg>
