<svg width="40" height="17" viewBox="0 0 40 17" fill="none" xmlns="http://www.w3.org/2000/svg">
<path d="M19.0976 0H36.7959C38.4877 0 39.7891 1.30135 39.7891 2.9931V13.6642C39.7891 15.3559 38.4877 16.7874 36.7959 16.7874H19.0976C17.4058 16.7874 16.1045 15.3559 16.1045 13.6642V2.9931C16.1045 1.30135 17.4058 0 19.0976 0ZM18.0565 1.82189L26.3852 8.71904C27.166 9.36972 28.5974 9.36972 29.5084 8.71904L37.837 1.82189C37.5768 1.56162 37.1864 1.30135 36.7959 1.30135H19.0976C18.7072 1.30135 18.3168 1.56162 18.0565 1.82189ZM38.4877 3.12324L30.4193 9.76012C28.9879 10.9313 26.7756 10.9313 25.4742 9.76012L17.4058 3.12324V13.6642C17.4058 14.5751 18.1867 15.3559 19.0976 15.3559H36.7959C37.7069 15.3559 38.4877 14.5751 38.4877 13.6642V3.12324Z" fill="#FDFDFD"/>
<path d="M6.47428 12.7533C5.69347 12.7533 5.69347 13.9245 6.47428 13.9245H13.6317C14.4125 13.9245 14.4125 12.7533 13.6317 12.7533H6.47428Z" fill="#FDFDFD"/>
<path d="M6.99484 9.23962C6.34417 9.23962 6.34417 10.4108 6.99484 10.4108H13.6317C14.4125 10.4108 14.4125 9.23962 13.6317 9.23962H6.99484Z" fill="#FDFDFD"/>
<path d="M4.65236 10.4108C5.43317 10.4108 5.43317 9.23962 4.65236 9.23962H2.96061C2.1798 9.23962 2.1798 10.4108 2.96061 10.4108H4.65236Z" fill="#FDFDFD"/>
<path d="M0.488006 6.37663C-0.162669 6.37663 -0.162669 7.54785 0.488006 7.54785H13.6316C14.4124 7.54785 14.4124 6.37663 13.6316 6.37663H0.488006Z" fill="#FDFDFD"/>
<path d="M5.69303 2.86301C4.91222 2.86301 4.91222 4.03422 5.69303 4.03422H7.25465C8.03546 4.03422 8.03546 2.86301 7.25465 2.86301H5.69303Z" fill="#FDFDFD"/>
<path d="M13.631 4.03422C14.4118 4.03422 14.4118 2.86301 13.631 2.86301H9.33658C8.55577 2.86301 8.55577 4.03422 9.33658 4.03422H13.631Z" fill="#FDFDFD"/>
</svg>
