<svg width="88" height="84" viewBox="0 0 88 84" fill="none" xmlns="http://www.w3.org/2000/svg">
<path fill-rule="evenodd" clip-rule="evenodd" d="M43.9106 0.0474066C43.5023 0.0645387 43.1091 0.206327 42.7838 0.453718C42.4585 0.701108 42.2168 1.04222 42.0912 1.43113L32.6713 30.6255L2.00369 30.5649C1.58069 30.5642 1.16834 30.6975 0.825901 30.9459C0.483462 31.1943 0.228574 31.5448 0.0978714 31.9472C-0.0328315 32.3495 -0.0326185 32.783 0.0984803 33.1852C0.229579 33.5875 0.484812 33.9377 0.827495 34.1858L25.6774 52.1682L16.136 81.3324C16.0046 81.7345 16.004 82.1679 16.1344 82.5703C16.2647 82.9727 16.5192 83.3235 16.8614 83.5721C17.2036 83.8208 17.6158 83.9546 18.0387 83.9542C18.4617 83.9539 18.8736 83.8194 19.2154 83.5702L43.9947 65.4868L68.7843 83.5705C69.1261 83.8197 69.538 83.954 69.961 83.9543C70.3839 83.9546 70.7961 83.8208 71.1382 83.5721C71.4803 83.3234 71.7348 82.9727 71.8651 82.5703C71.9954 82.1679 71.9948 81.7344 71.8634 81.3324L62.322 52.1682L87.1719 34.1858C87.5146 33.9377 87.7698 33.5875 87.9009 33.1852C88.032 32.783 88.0322 32.3495 87.9015 31.9472C87.7708 31.5448 87.5159 31.1943 87.1735 30.9459C86.8311 30.6975 86.4187 30.5642 85.9957 30.5649L55.3274 30.6255L45.8973 1.43046C45.7628 1.01446 45.4957 0.653999 45.1369 0.404218C44.7781 0.154437 44.3474 0.0291147 43.9106 0.0474066V0.0474066Z"/>
</svg>
