<svg width="55" height="52" viewBox="0 0 55 52" fill="none" xmlns="http://www.w3.org/2000/svg">
<path d="M53.84 19.66C53.6507 19.067 53.2926 18.5421 52.8094 18.1495C52.3263 17.757 51.7392 17.5139 51.12 17.45L36.12 15.82L29.94 2.06C29.6864 1.49225 29.2738 1.01007 28.7521 0.671721C28.2304 0.33337 27.6218 0.15332 27 0.15332C26.3782 0.15332 25.7697 0.33337 25.2479 0.671721C24.7262 1.01007 24.3136 1.49225 24.06 2.06L17.88 15.82L2.88001 17.45C2.26205 17.518 1.67684 17.7629 1.19464 18.1554C0.712442 18.5478 0.353736 19.071 0.161578 19.6623C-0.0305796 20.2535 -0.0480226 20.8877 0.111343 21.4886C0.270708 22.0895 0.60011 22.6317 1.06001 23.05L12.23 33.18L9.15001 47.94C9.02464 48.5482 9.07722 49.1796 9.30146 49.7586C9.52569 50.3376 9.91208 50.8398 10.4143 51.2048C10.9166 51.5699 11.5135 51.7825 12.1334 51.8171C12.7534 51.8517 13.3702 51.7069 13.91 51.4L27 43.9L40.09 51.4C40.6298 51.7069 41.2466 51.8517 41.8666 51.8171C42.4865 51.7825 43.0834 51.5699 43.5857 51.2048C44.0879 50.8398 44.4743 50.3376 44.6986 49.7586C44.9228 49.1796 44.9754 48.5482 44.85 47.94L41.77 33.18L52.94 23.05C53.4038 22.6339 53.736 22.0915 53.8958 21.4893C54.0557 20.8871 54.0363 20.2513 53.84 19.66V19.66ZM51.59 21.56L40 32.08C39.861 32.2018 39.7584 32.3597 39.7037 32.5362C39.649 32.7127 39.6442 32.901 39.69 33.08L42.89 48.4C42.9379 48.6314 42.9182 48.8717 42.8331 49.0922C42.748 49.3126 42.6012 49.5039 42.4103 49.6432C42.2194 49.7824 41.9924 49.8637 41.7565 49.8773C41.5205 49.891 41.2857 49.8363 41.08 49.72L27.5 41.88C27.348 41.7922 27.1755 41.746 27 41.746C26.8245 41.746 26.652 41.7922 26.5 41.88L12.92 49.67C12.7143 49.7863 12.4795 49.841 12.2436 49.8273C12.0076 49.8137 11.7806 49.7324 11.5897 49.5932C11.3988 49.4539 11.252 49.2626 11.1669 49.0422C11.0819 48.8217 11.0621 48.5814 11.11 48.35L14.31 33C14.3558 32.821 14.3511 32.6327 14.2963 32.4562C14.2416 32.2797 14.139 32.1218 14 32L2.41001 21.56C2.23116 21.4055 2.10236 21.2013 2.04003 20.9733C1.9777 20.7454 1.98465 20.504 2.06001 20.28C2.12778 20.0584 2.25827 19.8611 2.43573 19.7121C2.61319 19.563 2.83001 19.4685 3.06001 19.44L18.62 17.75C18.7932 17.7299 18.9582 17.6649 19.0985 17.5614C19.2388 17.4579 19.3497 17.3196 19.42 17.16L25.88 2.88C25.9777 2.66486 26.1352 2.48241 26.3339 2.35444C26.5325 2.22648 26.7637 2.15843 27 2.15843C27.2363 2.15843 27.4675 2.22648 27.6662 2.35444C27.8648 2.48241 28.0223 2.66486 28.12 2.88L34.54 17.16C34.6103 17.3196 34.7212 17.4579 34.8615 17.5614C35.0018 17.6649 35.1668 17.7299 35.34 17.75L50.9 19.44C51.13 19.4685 51.3468 19.563 51.5243 19.7121C51.7017 19.8611 51.8322 20.0584 51.9 20.28C51.9801 20.5002 51.9934 20.7391 51.9382 20.9668C51.8831 21.1945 51.7619 21.4009 51.59 21.56Z" fill="black"/>
</svg>
