<svg class="svg--caminhao" xmlns="http://www.w3.org/2000/svg" width="51.146" height="37.4" viewBox="0 0 51.146 37.4">
    <g id="caminhao_frete" data-name="caminhao frete" transform="translate(0 0.3)">
      <path id="Caminho_4603" data-name="Caminho 4603" d="M50.007,31.846l.01-.01.03-.06h0l.03-.06c0-.01,0-.01.01-.02s.01-.03.02-.05.01-.02.01-.03.01-.02.01-.04a1654.149,1654.149,0,0,0,.02-.06c.03-.25.619-4.965.879-8V23.5c.08-.879.12-1.618.12-2.068a9.746,9.746,0,0,0-9.74-9.74H38.189L39.158.539V.469h0a.757.757,0,0,0-.45-.689H38.7c-.02-.01-.03-.01-.05-.02s-.01,0-.02-.01-.03-.01-.04-.01-.02-.01-.03-.01a.06.06,0,0,1-.04-.01.076.076,0,0,1-.04-.01h-15.4a.755.755,0,0,0-.749.749.755.755,0,0,0,.749.749H37.59L36.1,18.33h0l-.38,4.315H9.69l.44-4.5h4.955a.749.749,0,1,0,0-1.5H10.269l.919-9.49H19.08a.749.749,0,0,0,0-1.5H11.338l.43-4.465h8.311a.755.755,0,0,0,.749-.749A.755.755,0,0,0,20.079-.3h-8.99a.749.749,0,0,0-.729.589V.3c0,.02-.01.04-.01.06v.02h0L9.84,5.664H.749A.8.8,0,0,0,0,6.443a.748.748,0,0,0,.749.749H9.69l-.919,9.49H6.094a.749.749,0,0,0,0,1.5H8.621l-.5,5.164h0l-.769,7.991h0v.07h0v.08c0,.02.01.04.01.06v.02c0,.01.01.03.01.04a.037.037,0,0,0,.01.03v.01a.788.788,0,0,0,.18.29h0c.01.01.02.02.03.02a.656.656,0,0,0,.17.12c.01.01.03.01.04.02h.01c.02.01.04.01.06.02h.01a.637.637,0,0,0,.07.02h.01c.02,0,.04.01.07.01h3.406a5.7,5.7,0,0,0,11.308,0H34.763a5.7,5.7,0,0,0,11.308,0h3.416a.127.127,0,0,0,.06-.01c.01,0,.02,0,.02-.01s.03-.01.04-.01.02-.01.03-.01.02-.01.04-.01.02-.01.03-.01.02-.01.03-.02.02-.01.03-.02.02-.01.03-.02.02-.01.03-.02.02-.01.03-.02.02-.01.02-.02l.03-.03.02-.02.03-.03.02-.02C49.987,31.876,50,31.856,50.007,31.846ZM37.66,17.721m0-.04.39-4.5Zm-1.249,6.493h.09c.02,0,.04-.01.06-.01s.02,0,.02-.01.03-.01.04-.01.02-.01.03-.01.03-.01.04-.01.02-.01.03-.01.02-.01.03-.02.02-.01.03-.02.02-.01.03-.02.02-.01.03-.02.02-.01.03-.02.02-.01.03-.02l.03-.03c.01-.01.02-.01.02-.02l.03-.03c.01-.01.01-.02.02-.02s.02-.02.02-.03.01-.02.02-.02.01-.02.02-.03a.037.037,0,0,0,.01-.03c.01-.01.01-.02.02-.04s.01-.02.01-.03.01-.02.01-.04.01-.02.01-.03.01-.02.01-.04.01-.02.01-.04a458.37,458.37,0,0,1,.02-.08v-.01l.9-10.3s5.095-.849,8.491,1.8c4.925,3.1,2.338,14.395,2.188,15.683H46.061a5.7,5.7,0,0,0-11.308,0H22.736a5.7,5.7,0,0,0-11.308,0H8.92l.629-6.493,26.861.01ZM17.082,35.622a4.206,4.206,0,1,1,4.206-4.206A4.212,4.212,0,0,1,17.082,35.622Zm23.325,0a4.206,4.206,0,1,1,4.206-4.206A4.212,4.212,0,0,1,40.407,35.622Z" transform="translate(0 0)"></path>
      <path id="Caminho_4604" data-name="Caminho 4604" d="M31.964,114.449a.755.755,0,0,0-.749-.749H27.549a.749.749,0,0,0,0,1.5h3.666A.755.755,0,0,0,31.964,114.449Z" transform="translate(-24.123 -102.612)"></path>
    </g>
  </svg>